<svg width="864" height="209" viewBox="0 0 864 209" fill="none" xmlns="http://www.w3.org/2000/svg">
<path d="M24.74 0.239998L48.82 96H41.12L37.2 80.74H12.28L8.5 96H0.8L24.74 0.239998ZM24.74 30.9L14.24 73.32H35.38L24.74 30.9ZM46.218 0.239998H53.918L70.438 66.04L87.098 0.239998H94.798L70.438 96.7L46.218 0.239998ZM117.353 0.239998L141.433 96H133.733L129.813 80.74H104.893L101.113 96H93.4133L117.353 0.239998ZM117.353 30.9L106.853 73.32H127.993L117.353 30.9ZM207.646 96V0.379996H218.846C229.626 0.379996 238.586 9.2 238.586 20.12C238.586 31.04 229.626 40 218.846 40H215.066V96H207.646ZM215.066 32.44H218.846C225.566 32.44 231.026 26.98 231.026 20.12C231.026 13.26 225.566 7.79999 218.846 7.79999H215.066V32.44ZM259.626 96V0.239998H267.046V96H259.626ZM292.739 96V0.239998H300.159V96H292.739ZM325.853 96V0.379996H337.053C347.833 0.379996 356.793 9.2 356.793 20.12C356.793 25.86 354.413 31.04 350.493 34.68C362.113 39.3 370.373 50.78 370.373 64.08C370.373 81.72 356.093 96 338.593 96H325.853ZM333.273 32.3H337.053C343.773 32.3 349.233 26.98 349.233 20.12C349.233 13.26 343.773 7.79999 337.053 7.79999H333.273V32.3ZM333.273 88.44H338.593C352.033 88.44 362.953 77.66 362.953 64.08C362.953 50.64 352.033 40 338.593 40H333.273V88.44ZM417.545 0.239998V7.65999H394.445V32.44H417.545V39.86H394.445V68C394.445 79.34 403.685 88.58 415.025 88.58H417.545V96H415.025C398.645 96 387.025 82.56 387.025 68.42V0.239998H417.545ZM438.564 0.239998H445.984V88.58H468.944V96H438.564V0.239998ZM134.537 198.58V110.24H141.957V206H117.317C106.257 206 97.0172 196.76 97.0172 185.7V110.24H104.437V183.46C104.437 193.54 109.757 198.58 119.557 198.58H134.537ZM245.816 110.24V206H238.396V117.8H236.296C227.476 117.8 210.536 126.9 210.536 151.26V206H202.976V151.26C202.976 126.9 186.036 117.8 177.216 117.8H175.116V206H167.696V110.24H175.116C190.796 110.8 201.436 119.76 206.756 132.22C212.076 119.76 222.716 110.8 238.396 110.24H245.816ZM289.41 110.24C302.85 110.24 311.95 121.16 311.95 132.36V206H304.39V190.74H274.43V206H266.87V132.36C266.87 121.16 275.97 110.24 289.41 110.24ZM289.41 117.66C280.17 117.66 274.43 125.5 274.43 132.78V183.32H304.39V132.78C304.39 125.64 298.65 117.66 289.41 117.66ZM332.907 110.24H340.327V198.58H362.587V206H332.907V110.24ZM462.962 110.24H471.642L449.522 146.08L473.182 206H465.202L442.942 149.86H436.222V206H428.802V110.24H436.222V142.44H442.942L462.962 110.24ZM537.763 108C565.343 108 587.883 130.4 587.883 158.12C587.883 185.7 565.343 208.24 537.763 208.24C510.183 208.24 487.643 185.7 487.643 158.12C487.643 130.4 510.183 108 537.763 108ZM537.763 200.54C561.003 200.54 580.183 181.36 580.183 158.12C580.183 134.74 561.003 115.7 537.763 115.7C514.523 115.7 495.343 134.74 495.343 158.12C495.343 181.36 514.523 200.54 537.763 200.54ZM653.152 110.24V206H645.732V151.26C645.732 127.04 628.652 117.66 619.972 117.66H616.472V206H609.052V110.24H616.472C629.772 110.24 639.572 116.26 645.732 125.36V110.24H653.152ZM704.983 110.24V117.66H681.883V142.44H704.983V149.86H681.883V178C681.883 189.34 691.123 198.58 702.463 198.58H704.983V206H702.463C686.083 206 674.463 192.56 674.463 178.42V110.24H704.983ZM726.001 110.24H733.421V198.58H755.681V206H726.001V110.24ZM798.143 110.24V117.66H775.043V142.44H798.143V149.86H775.043V178C775.043 189.34 784.283 198.58 795.623 198.58H798.143V206H795.623C779.243 206 767.623 192.56 767.623 178.42V110.24H798.143ZM819.161 206V110.38H830.361C841.141 110.38 850.101 119.2 850.101 130.12C850.101 135.86 847.721 141.04 843.801 144.68C855.421 149.3 863.681 160.78 863.681 174.08C863.681 191.72 849.401 206 831.901 206H819.161ZM826.581 142.3H830.361C837.081 142.3 842.541 136.98 842.541 130.12C842.541 123.26 837.081 117.8 830.361 117.8H826.581V142.3ZM826.581 198.44H831.901C845.341 198.44 856.261 187.66 856.261 174.08C856.261 160.64 845.341 150 831.901 150H826.581V198.44Z" fill="#152636"/>
</svg>
